<?xml version="1.0" encoding="UTF-8" standalone="no"?>
<svg
   xmlns:dc="http://purl.org/dc/elements/1.1/"
   xmlns:cc="http://creativecommons.org/ns#"
   xmlns:rdf="http://www.w3.org/1999/02/22-rdf-syntax-ns#"
   xmlns:svg="http://www.w3.org/2000/svg"
   xmlns="http://www.w3.org/2000/svg"
   viewBox="0 0 249.48 249.48"
   height="249.48"
   width="249.48"
   xml:space="preserve"
   id="svg2"
   version="1.1"><metadata
     id="metadata8"><rdf:RDF><cc:Work
         rdf:about=""><dc:format>image/svg+xml</dc:format><dc:type
           rdf:resource="http://purl.org/dc/dcmitype/StillImage" /></cc:Work></rdf:RDF></metadata><defs
     id="defs6" /><g
     transform="matrix(1.3333333,0,0,-1.3333333,0,249.48)"
     id="g10"><g
       transform="scale(0.1)"
       id="g12"><path
         id="path14"
         style="fill:#3e7bc7;fill-opacity:1;fill-rule:nonzero;stroke:none"
         d="M 2182.97,1559.26 1559.26,2182.96 -311.852,311.852 311.852,-311.859 2182.97,1559.26" /><path
         id="path16"
         style="fill:#d31e25;fill-opacity:1;fill-rule:nonzero;stroke:none"
         d="M 2806.67,935.551 2182.97,1559.26 311.852,-311.859 935.559,-935.559 2806.67,935.551" /><path
         id="path18"
         style="fill:#fbfdfb;fill-opacity:1;fill-rule:nonzero;stroke:none"
         d="M 1559.26,2182.96 935.559,2806.67 -935.559,935.555 -311.852,311.852 1559.26,2182.96" /><path
         id="path20"
         style="fill:#ffffff;fill-opacity:1;fill-rule:nonzero;stroke:none"
         d="M 1818.11,935.555 C 1818.11,448.129 1422.98,53 935.559,53 448.141,53 53.0078,448.129 53.0078,935.555 c 0,487.415 395.1332,882.545 882.5512,882.545 487.421,0 882.551,-395.13 882.551,-882.545" /><path
         id="path22"
         style="fill:#231f20;fill-opacity:1;fill-rule:nonzero;stroke:none"
         d="M 732.449,613.668 C 753.668,589.18 706.488,561.801 686.539,557 c -31.098,-7.48 -67.801,-2.129 -82.961,16.949 -51.41,64.699 51.149,61.481 80.887,49 42.453,-17.808 28.73,12.942 47.984,-9.281" /><path
         id="path24"
         style="fill:#231f20;fill-opacity:1;fill-rule:nonzero;stroke:none"
         d="m 953.777,681.078 c 0.286,0.371 -0.961,-3.449 -1.011,-4.09 -0.809,-9.808 -1.551,-19.617 -2.164,-29.449 -0.039,-0.629 -0.192,-5.359 0.546,-5.609 4.711,-1.66 11.329,-7.711 15.957,-9.559 23.043,-8.019 37.155,-5.59 33.375,3.289 -4.664,9.961 -8.66,19.149 -13.25,28.051 -3.199,6.199 -6.324,8.75 -13.3,9.769 -5.867,0.848 -13.711,3.45 -20.153,7.598 z M 807.508,976.137 c 15.148,-13.828 33.012,-7.969 44.496,-4.047 4.262,6.683 11.93,21.617 13.992,31.96 2.465,12.36 4.949,18.45 6.875,28.04 1.5,7.46 1.867,13.7 -2.605,23.48 -14.828,6.77 -33.071,10.12 -34.703,10.43 -5.645,1.08 -21.274,-16.19 -22.153,-21.88 -2.258,-14.6 -4.633,-29.2 -6.25,-43.87 -0.781,-7.098 -0.285,-17.695 0.348,-24.113 z m 87.441,-297.266 c 3.981,20 0.571,26.359 -18.16,33.867 -1.73,0.692 -3.508,1.282 -5.215,2.032 -8.695,3.832 -18.449,5.742 -24.476,14.41 -0.727,1.039 -6.278,0.64 -6.61,-0.239 -4.629,-12.101 -7.617,-24.961 -1.39,-36.941 6.933,-13.34 20.945,-18.828 33.578,-25.43 1.164,-0.609 5.613,-2.582 9.199,-2.98 10.461,-1.461 11.648,8.129 13.074,15.281 z M 792.34,628.77 c 11.195,3.91 9.18,13.582 8.746,26.968 -0.203,6.223 -0.816,12.59 -1.813,18.84 -0.796,5.012 -5.789,7.594 -10.367,8.723 -19.218,4.738 -38.472,9.34 -58.242,14.117 0.871,-7.43 1.66,-14.047 2.426,-20.68 2.305,-20 14.543,-32.726 31.14,-42.09 7.247,-4.078 19.321,-9.32 28.11,-5.878 z M 736,704.762 c 3.195,-1.742 4.68,-2.961 6.363,-3.391 9.18,-2.32 18.371,-4.633 27.633,-6.582 8.82,-1.859 17.727,-3.328 26.606,-4.891 7.527,-1.32 11.843,-6.128 14.687,-12.847 5.363,-12.653 4.613,-25.852 3.629,-39.063 -0.824,-11.09 -10.289,-19.668 -21.465,-19.437 -19.461,0.398 -34.535,10.148 -48.078,22.961 -3.645,3.437 -6.984,7.207 -11.082,11.468 -0.477,-2.23 -1.219,-3.652 -0.953,-4.839 1.453,-6.582 2.683,-13.262 4.851,-19.621 8.504,-24.95 24.586,-42.981 50.254,-50.469 11.325,-3.313 23.461,-3.813 35.196,-5.762 1.484,-0.25 2.785,-1.59 4.172,-2.418 -1.434,-0.812 -2.887,-2.351 -4.297,-2.312 -7.129,0.203 -14.25,0.781 -21.368,1.3 -4.171,0.301 -8.339,0.719 -12.507,1.082 4.41,-3.691 9.082,-6.3 14.093,-7.582 16.5,-4.25 32.754,-1.539 48.739,3.02 6.117,1.742 7.312,9.812 3.433,14.891 -5.711,7.492 -11.871,14.98 -15.781,23.421 -8.875,19.168 -9.605,39.868 -9.555,60.719 0.02,6.942 -2.199,14.488 -5.437,20.699 -7.5,14.403 -20.574,23.52 -35.094,29.352 -7.926,3.18 -17.445,2.738 -26.277,3.09 -3.067,0.117 -6.352,-2.09 -9.313,-3.66 -3.41,-1.801 -6.476,-4.25 -9.875,-6.09 -2.105,-1.141 -4.551,-1.653 -8.574,-3.039 z m 329.84,-101.813 c 0.1,-2.258 0.22,-3.648 0.21,-5.039 -0.18,-14.25 -14.62,-32.051 -26.19,-32.172 -1.19,-0.008 -2.39,0.91 -3.58,1.403 0.94,1.019 1.69,2.558 2.85,2.98 11.32,4.168 17.75,21.777 11.96,32.328 -2.84,5.172 -5.02,10.711 -7.41,16.121 -9.63,21.789 -19.48,43.371 -34.71,62.121 -9.591,11.821 -21.122,16.231 -35.798,13.137 -1.981,-0.418 -4.102,-0.457 -5.926,-1.219 -2.242,-0.929 -4.25,-2.441 -6.355,-3.711 1.929,-2.457 3.355,-6.078 5.886,-7.187 9.114,-3.992 18.684,-6.93 27.895,-10.723 2.484,-1.019 5.031,-3.25 6.308,-5.597 4.08,-7.512 7.98,-15.172 11.2,-23.09 5.77,-14.172 3.39,-19.961 -10.06,-25.301 -2.749,-1.09 -6.089,-1.199 -9.116,-1.02 -16.984,1.032 -31.754,7.008 -43.41,20.36 -0.043,-1.25 -0.164,-2.168 -0.098,-3.078 1.625,-22.5 9.18,-43.082 20.293,-62.492 4.414,-7.7 9.688,-15.192 18.551,-17.532 22.22,-5.867 44.45,-6.5 64.83,6.09 11.52,7.113 19.25,17.731 20.59,31.75 0.5,5.242 -1.07,10.102 -7.92,11.871 z M 867.363,584.328 c -0.504,-0.578 -1.008,-1.168 -1.515,-1.75 10.496,-9.539 19.808,-21.078 31.769,-28.117 16.063,-9.449 34.383,-10.16 52.192,-2.543 7.625,3.273 9.472,8.57 5.644,15.773 -1.387,2.61 -2.949,5.188 -3.883,7.969 -9.457,28.16 -12.336,57.719 -11.73,86.801 0.531,25.519 -6.051,44.519 -26.68,59.527 -17.625,12.832 -33.969,21.153 -57.14,22.453 -13.032,0.727 -8.262,-10.351 -2.579,-15.019 5.688,-4.66 43.649,-16.442 48.641,-18.371 4.992,-1.922 8.07,-4.75 10.242,-10.922 2.176,-6.18 3.121,-26.879 -3.07,-41.348 -4.43,-10.351 -7.836,-12.222 -19.031,-11.32 -16.145,1.289 -30.379,7.437 -43.254,17.469 -8.821,-8.032 -10.496,-18.008 -8.196,-28.7 5.493,-25.48 20.161,-42.941 45.567,-50.691 1.656,-0.508 3.004,-2.027 4.496,-3.078 -0.344,-0.609 -0.688,-1.223 -1.031,-1.832 -6.813,1.23 -13.625,2.473 -20.442,3.699 z m 275.887,-3.527 c -18.86,-3.762 -35.83,1.699 -52.66,9.89 -4.5,-9.543 -8.82,-19.312 -13.67,-28.82 -4.9,-9.633 -11.48,-18.082 -22.13,-21.652 -5.18,-1.75 -10.95,-2.289 -16.47,-2.379 -14.87,-0.25 -29.75,-0.078 -44.613,0.191 -2.715,0.047 -5.769,0.797 -8.039,2.231 -7.762,4.879 -14.836,3.047 -22.984,0.238 -27.024,-9.309 -52.797,-5.281 -76.731,10.102 -3.57,2.296 -6.133,6.117 -9.48,8.847 -1.2,0.973 -3.973,1.68 -4.957,0.992 -22.477,-15.761 -46.254,-13.511 -70.641,-5.742 -20.812,6.641 -36.664,20.711 -52.402,34.813 -3.903,3.5 -6.61,6.906 -13.008,15.379 -20.766,-0.832 -63.324,-15.403 -64.672,-15.36 -18.883,0.528 -48.203,4.731 -89.676,-18.652 -37.558,-21.168 -37.004,-36.238 -86.347,-59.57 -6.184,-2.93 -20.602,-2.489 -20.868,-1.918 35.129,23.418 18.793,13.3 66.786,50.379 60.3,46.589 32.027,84.421 130.886,72.48 27.883,-3.359 42.516,0.281 58.934,-2.262 1.18,0.18 0,0 -1.43,5.442 0.731,11.011 -1.269,21.539 -1.496,32.55 -0.211,10.161 -2.484,20.29 -2.531,30.442 -0.024,4.816 1.668,10.976 4.894,14.258 15.715,15.949 34.168,23.16 57.153,17.179 19.359,-5.039 33.222,-16.179 44.574,-32.988 0.289,3.981 0.289,8.008 0.93,11.93 1.589,9.738 2.882,19.578 5.421,29.078 1.938,7.262 7.54,11.269 15.34,12.5 35.18,5.543 62.68,-8.309 85.067,-34.07 3.57,-4.098 3.847,-10.989 6.101,-16.391 0.489,-1.18 2.934,-1.539 4.473,-2.27 5.34,11.571 16.902,10.84 26.672,12.622 4.91,0.89 7.152,2.601 9.633,6.589 4.761,7.672 10.515,14.719 15.851,22.02 2.06,-0.981 1.58,-0.75 3.63,-1.738 -2.99,-11.102 -5.993,-22.2 -9.122,-33.782 16.792,-10.488 31.412,-24.328 42.072,-41.847 5.64,-9.25 9.76,-19.434 14.86,-29.024 1.42,-2.679 3.49,-5.457 5.99,-7.027 13.84,-8.699 28.1,-16.723 41.82,-25.59 16.71,-10.801 32.93,-8.66 48.6,1.367 21.23,13.582 32.12,33.621 34.37,58.563 0.55,6.16 -1.31,10.629 -8.05,13.758 -20.7,9.589 -40.68,20.621 -58.65,34.671 -4.96,3.872 -10.74,6.598 -15.93,10.168 -13.68,9.411 -26.91,19.512 -43.27,24.262 -3.62,1.051 -6.67,4.059 -9.98,6.16 0.23,0.629 0.45,1.258 0.68,1.899 2.7,-0.559 5.45,-0.93 8.08,-1.719 2.22,-0.68 4.27,-1.871 6.42,-2.789 9.86,-4.231 11.62,-3.152 13.5,8.367 1.55,-2.527 2.91,-5.219 4.72,-7.558 1.84,-2.399 3.71,-5.508 6.26,-6.5 28.39,-10.899 53.01,-27.418 76.59,-46.59 14.22,-11.551 33.3,-15.43 51.35,-9.692 21.15,6.711 44.84,44.91 42.1,67.032 -0.83,6.628 -6.36,14.23 -11.97,18.378 -10.79,8.012 -23.1,14 -34.91,20.59 -13.66,7.621 -28.23,13.871 -41.02,22.711 -19.08,13.192 -38.12,25.352 -62.1,26.922 -2.74,0.168 -5.38,2.07 -9.76,3.859 9.32,4.969 15.92,-0.23 23,-0.98 -2.81,3.512 -5.42,6.789 -8.04,10.07 0.57,0.551 1.13,1.11 1.7,1.66 11.02,-13.011 27.41,-13.511 41.67,-19.089 8.8,-3.442 17.07,-8.77 24.77,-14.36 21.1,-15.332 42.24,-30.422 67.86,-37.511 14.72,-4.071 30.14,-14.891 35.53,-15.11 6.55,-0.262 13.51,-0.519 19.65,1.34 14.41,4.371 25.68,13.898 34.85,25.59 8.81,11.23 11.43,23.558 6.24,37.66 -8.49,23.051 -19.46,44.441 -36.76,62.18 -1.4,1.433 -2.87,3 -4.62,3.867 -39.5,19.516 -78.66,39.801 -118.76,58.008 -18.13,8.23 -38.15,12.273 -57.28,18.328 -1.38,0.437 -2.48,1.762 -3.72,2.672 1.3,0.742 2.56,2.043 3.91,2.133 8.88,0.605 17.78,0.953 28.22,1.457 -3.98,3.085 -7.23,5.261 -10.03,7.906 -1.51,1.426 -2.26,3.656 -3.36,5.527 1.99,-0.586 4.36,-0.664 5.91,-1.828 33.96,-25.488 71.31,-44.379 111.66,-57.355 2.17,-0.7 31.27,-14.782 47.93,-21.153 16.86,-6.449 33.82,-12.683 50.91,-18.476 9.23,-3.129 18.2,-1.434 26.1,4.523 15.37,11.59 23.12,28.277 29.54,45.594 1.17,3.133 -0.31,7.73 -1.67,11.226 -6.91,17.797 -18.24,32.118 -34.66,42.491 -5.87,3.71 -11.14,8.28 -16.23,13.01 -23.91,22.22 -52.02,35.74 -84.12,41.32 -27.14,4.71 -54.74,7.77 -81.26,14.85 -34.39,9.19 -67.87,21.79 -101.83,32.64 -27.68,8.85 -55.86,16.72 -85.14,14.79 -30.945,-2.03 -45.25,-29.9 -51.566,-32.82 -2.524,-1.16 -5.86,-4.7 -5.676,-6.9 1.105,-13.24 -4.93,-24.5 -8.82,-36.39 -7.563,-23.1 -21.723,-42.346 -37.196,-60.323 -13.531,-15.718 -29.359,-29.422 -51.277,-32.605 -17.207,-2.496 -31.766,3.113 -46.531,12.164 -9.231,5.656 -7.727,11.914 -7.348,19.199 0.953,18.309 0.215,17.305 1.414,36.825 -1.203,-1.02 7.371,38.73 1.059,33.09 -16.707,-14.92 -38.942,-13.65 -73.504,-33.93 -21.664,-12.72 -44.785,-29.985 -66.363,-46.895 -4.875,-3.816 -9.668,-7.617 -14.348,-11.34 -18.609,-14.812 -35.426,-28.437 -48.27,-37.32 -30.375,-21.008 -177.832,-76.785 -186.14,-77.274 -2.184,-0.132 -29.293,6.329 -31.188,9.399 2.789,0.301 128.27,35.156 199.414,72.348 71.149,37.191 83.793,67.652 109.985,82.812 52.375,30.33 74.875,32.78 109.218,53.96 1.309,1.06 5.293,24.72 4.485,33.99 2.66,22.74 16.105,36.53 36.113,62.77 16.399,13.57 26.297,26.29 42.625,39.93 13.469,11.26 26.102,23.51 38.953,35.5 13.508,7.17 33.946,18 47.453,25.16 28.036,6.46 69.648,14 105.168,16.39 23.42,1.57 46.89,2.34 70.33,3.38 10.71,0.48 21.43,0.72 32.14,1.14 6.18,0.25 11.99,2.92 16.39,7.26 23.99,23.65 37.3,54.52 56.5,81.35 8.85,12.37 20.39,22.84 30.82,34.07 1.22,1.31 3.14,1.98 4.73,2.94 0.44,-0.45 0.87,-0.9 1.31,-1.36 -1.79,-2.3 -3.53,-4.65 -5.37,-6.92 -20.99,-25.92 -41.03,-52.51 -56.38,-82.27 -4.98,-9.67 -9.27,-19.72 -13.47,-29.77 -0.57,-1.38 0.74,-4.93 2,-5.44 4.13,-1.67 8.74,-2.11 12.98,-3.56 3.43,-1.18 6.61,-3.07 9.89,-4.68 -0.26,-1.18 -0.22,-0.98 -0.49,-2.16 -16.56,0.05 -33.13,0.25 -49.7,0.12 -37.44,-0.26 -74.93,0.41 -112.29,-1.51 -19.7,-1.01 -39.24,-6.31 -58.71,-10.35 -22.937,-4.76 -16.32,-3.44 -32.844,-7.28 -25.547,-5.95 -47.894,-17.3 -65.523,-36.97 -17.637,-19.67 -39.668,-33.85 -60.723,-49.26 -1.594,-1.17 -3.039,-2.55 -5.074,-4.28 12.254,-4.51 26.723,-3.52 34.148,-17.96 -4.355,1.77 -7.714,3.49 -11.277,4.52 -14.992,4.3 -18.035,5.09 -31.996,-0.66 -0.453,-0.18 -13.586,-18.5 -13.981,-18.8 -13.773,-10.29 -17.257,-28.74 -16.343,-44.9 1.32,-3.73 3.074,-4.81 6.828,-3.74 3.265,0.92 6.707,1.34 10.094,1.68 10.406,1.03 54.031,-8.54 52.902,-18.93 -1.813,-16.66 -4.141,-43.46 -11.09,-58.74 -6.519,-14.35 -8.766,-28.022 -14.238,-35.147 -13.383,-7.926 -16.75,-9.231 -16.75,-9.231 15.597,-4.859 22.871,4.34 34.976,12.11 22.168,14.222 35.856,35.798 45.911,59.328 7.675,17.96 13.597,36.75 19.164,55.51 4.097,13.79 2.105,27.19 -8.161,39.53 1.817,-0.18 3.797,0.03 5.422,-0.64 3.875,-1.59 7.543,-3.69 11.371,-5.41 9.641,-4.33 19.028,-6.05 29.293,-0.7 7.735,4.03 16.485,6.07 24.491,9.6 7.84,3.47 12.48,11.59 12.17,20.15 -0.47,12.73 1.22,25.54 2.58,38.26 0.19,1.74 3.23,3.17 4.95,4.75 1.16,-2.18 3.15,-4.28 3.36,-6.55 1.19,-12.94 0.61,-26.2 3.2,-38.82 3.6,-17.59 15.58,-25.22 33.53,-24.02 3.72,0.25 7.45,0.73 11.09,1.48 41.62,8.64 -4.86,6.34 33.02,-12.48 17.32,-8.6 37.13,-12.34 56.31,-5.43 7.71,2.78 15.27,8.74 20.48,15.21 13.5,16.79 20.42,36.54 21.3,58.23 0.04,1.06 0.22,2.13 0.42,3.18 0.05,0.23 0.45,0.39 1.54,1.26 0.67,-1.77 1.58,-3.2 1.72,-4.71 2.07,-23.52 2.9,-46.95 -5.04,-69.76 -1.23,-3.54 -0.14,-5.04 3.79,-3.94 24.94,6.98 49.64,14.55 71.85,28.36 2.68,1.67 4.72,4.35 7.17,6.43 1.61,1.35 3.43,2.45 5.66,2.99 -4.26,-12.06 -13.2,-19.63 -23.36,-25.79 -12.64,-7.67 -25.77,-14.53 -38.26,-22.41 -2.82,-1.77 -5.45,-6.3 -5.44,-9.55 0.02,-5.05 4.61,-6.5 9.48,-6.81 27.45,-1.75 51.93,7.58 74.68,21.38 15.37,9.32 29.44,20.77 44.09,31.27 0.82,0.59 1.62,1.22 2.43,1.83 1.2,-0.5 2.4,-1 3.6,-1.5 -1.38,-1.22 -3.17,-2.21 -4.07,-3.72 -11.35,-18.99 -27.97,-32.75 -45.2,-45.93 -3.7,-2.84 -7.81,-5.27 -10.99,-8.6 -1.25,-1.31 -1.04,-4.71 -0.42,-6.85 0.42,-1.43 2.57,-2.78 4.23,-3.36 24.63,-8.64 45.24,-24.04 66.11,-39.04 14.83,-10.65 22.53,-10.09 34.93,3.83 18.7,20.99 36.88,42.45 55.34,63.66 19.9,22.85 39.68,45.81 59.96,68.32 3.73,4.15 9.59,6.37 14.47,9.49 0.65,-0.77 1.31,-1.54 1.96,-2.3 -4.49,-6.21 -8.46,-12.89 -13.56,-18.55 -23.62,-26.22 -47.81,-51.93 -71.3,-78.26 -17.67,-19.81 -32.68,-41.57 -44.94,-65.2 -2.11,-4.074 -1.58,-6.531 1.41,-9.687 5.43,-5.746 11.16,-11.434 15.41,-18.024 7.32,-11.382 6.38,-24.281 3.04,-36.582 -5,-18.359 -17.25,-32.515 -30.94,-44.746 -12.91,-11.523 -29.89,-10.176 -45.93,-9.301 -5.81,0.321 -9.22,-1.492 -10.84,-6.718 -0.67,-2.157 -0.61,-4.5 0.21,-6.606 4.44,-11.418 10.01,-22.445 13.69,-34.086 8.82,-27.91 -3.62,-48.761 -24.24,-65.922 -12.95,-10.777 -28.21,-16.277 -45.32,-15.617 -4.09,0.16 -6.66,-1.121 -5.26,-5.652 6.02,-19.43 -1.36,-35.098 -13.04,-50.059 -14.66,-18.789 -33.96,-28.539 -57.18,-31.769 -1.63,-0.223 -4.29,-3.371 -4.11,-4.879 4.03,-33.121 -15.72,-53.184 -38.19,-71.602 0.2,0.071 0.94,0.321 1.65,0.621 0.86,0.368 1.7,0.789 2.54,1.188" /><path
         id="path26"
         style="fill:#231f20;fill-opacity:1;fill-rule:nonzero;stroke:none"
         d="m 1101.19,1004.53 c -6.44,-3.86 -12.25,-9.167 -19.49,-11.214 -8.02,-2.265 -17.51,-1.066 -26.09,-2.273 -9.02,-1.266 -17.71,-3.625 -26.58,-5.434 -1.14,-0.234 -2.44,-0.035 -3.67,-0.035 0.09,1.227 -0.34,2.989 0.37,3.594 5.71,4.937 10.76,11.162 17.7,14.062 9.17,3.84 19.93,4.89 29.9,7.4 6.8,1.71 13.39,3.93 20.13,5.82 1.67,0.46 3.53,0.53 5.3,0.79 0.17,-1.58 0.33,-3.17 0.51,-4.75 0.24,-1.97 0.49,-3.95 0.73,-5.93 0.4,-0.67 0.8,-1.35 1.19,-2.03" /><path
         id="path28"
         style="fill:#231f20;fill-opacity:1;fill-rule:nonzero;stroke:none"
         d="m 962.441,774.66 c 8.852,-2.98 17.539,-6.582 26.61,-8.73 7.336,-1.739 13.249,2.441 18.689,6.539 6.91,5.211 13.9,10.351 20.82,15.562 0.48,0.367 1.05,1.43 0.91,1.559 -0.68,0.629 -1.67,1.539 -2.4,1.449 -5.11,-0.641 -10.33,-1.09 -15.21,-2.461 -2.56,-0.719 -4.93,-2.867 -6.67,-4.887 -9.561,-11.132 -21.815,-12.761 -35.963,-8.5 -2.016,0.61 -4.157,0.86 -6.239,1.278 -0.183,-0.598 -0.367,-1.207 -0.547,-1.809" /><path
         id="path30"
         style="fill:#231f20;fill-opacity:1;fill-rule:nonzero;stroke:none"
         d="m 1065.76,883.332 c -3.32,4.578 -12.09,5.316 -18.58,1.988 -4.16,-2.132 -8.16,-4.57 -12.25,-6.828 -9.04,-4.992 -18.24,-8.39 -29,-3.5 1.37,-1.199 2.58,-2.668 4.12,-3.554 10.1,-5.829 20.87,-4.407 30.91,-0.899 8.59,2.996 16.37,8.332 24.8,12.793" /><path
         id="path32"
         style="fill:#231f20;fill-opacity:1;fill-rule:nonzero;stroke:none"
         d="m 1469.96,1284.34 c -2.35,-5.67 -4.38,-11.49 -7.11,-16.97 -7.14,-14.34 -14.25,-28.73 -22.12,-42.67 -2.48,-4.4 -7.39,-7.4 -11.11,-11.12 -14.38,-14.36 -28.7,-28.78 -43.14,-43.06 -0.95,-0.94 -2.78,-0.97 -4.2,-1.41 -0.01,1.89 -0.82,4.37 0.08,5.58 15.21,20.43 30.57,40.76 46.03,61.01 11.78,15.44 23.74,30.76 35.68,46.08 1.13,1.46 2.71,2.57 4.09,3.84 0.6,-0.43 1.2,-0.85 1.8,-1.28" /><path
         id="path34"
         style="fill:#ffffff;fill-opacity:1;fill-rule:nonzero;stroke:none"
         d="m 718.375,611.219 c 16.875,-19.481 -20.648,-41.258 -36.516,-45.078 -24.734,-5.942 -53.925,-1.692 -65.984,13.488 -40.891,51.461 40.68,48.902 64.336,38.973 33.762,-14.172 22.848,10.289 38.164,-7.383" /><g
         transform="scale(10)"
         id="g36"><text
           id="text40"
           style="font-variant:normal;font-weight:normal;font-size:18.61409569px;font-family:ArialMT;-inkscape-font-specification:ArialMT;writing-mode:lr-tb;fill:#040606;fill-opacity:1;fill-rule:nonzero;stroke:none"
           transform="matrix(0.0805919,-0.996747,-0.996747,-0.0805919,10.1395,92.9293)"><tspan
             id="tspan38"
             y="0"
             x="0">Е</tspan></text>
<text
           id="text44"
           style="font-variant:normal;font-weight:normal;font-size:18.61419296px;font-family:ArialMT;-inkscape-font-specification:ArialMT;writing-mode:lr-tb;fill:#040606;fill-opacity:1;fill-rule:nonzero;stroke:none"
           transform="matrix(0.233281,-0.972409,-0.972409,-0.233281,11.3977,79.3078)"><tspan
             id="tspan42"
             y="0"
             x="0">д</tspan></text>
<text
           id="text48"
           style="font-variant:normal;font-weight:normal;font-size:18.61408997px;font-family:ArialMT;-inkscape-font-specification:ArialMT;writing-mode:lr-tb;fill:#040606;fill-opacity:1;fill-rule:nonzero;stroke:none"
           transform="matrix(0.368977,-0.929438,-0.929438,-0.368977,14.3027,67.6289)"><tspan
             id="tspan46"
             y="0"
             x="0">и</tspan></text>
<text
           id="text52"
           style="font-variant:normal;font-weight:normal;font-size:18.61420631px;font-family:ArialMT;-inkscape-font-specification:ArialMT;writing-mode:lr-tb;fill:#040606;fill-opacity:1;fill-rule:nonzero;stroke:none"
           transform="matrix(0.493243,-0.869892,-0.869892,-0.493243,18.6309,56.9488)"><tspan
             id="tspan50"
             y="0"
             x="0">н</tspan></text>
<text
           id="text56"
           style="font-variant:normal;font-weight:normal;font-size:18.61420059px;font-family:ArialMT;-inkscape-font-specification:ArialMT;writing-mode:lr-tb;fill:#040606;fill-opacity:1;fill-rule:nonzero;stroke:none"
           transform="matrix(0.60189,-0.798579,-0.798579,-0.60189,24.3227,47.118)"><tspan
             id="tspan54"
             y="0"
             x="0">с</tspan></text>
<text
           id="text60"
           style="font-variant:normal;font-weight:normal;font-size:18.6140976px;font-family:ArialMT;-inkscape-font-specification:ArialMT;writing-mode:lr-tb;fill:#040606;fill-opacity:1;fill-rule:nonzero;stroke:none"
           transform="matrix(0.691399,-0.722473,-0.722473,-0.691399,30.557,38.9781)"><tspan
             id="tspan58"
             y="0"
             x="0">т</tspan></text>
<text
           id="text64"
           style="font-variant:normal;font-weight:normal;font-size:18.61420441px;font-family:ArialMT;-inkscape-font-specification:ArialMT;writing-mode:lr-tb;fill:#040606;fill-opacity:1;fill-rule:nonzero;stroke:none"
           transform="matrix(0.773878,-0.633335,-0.633335,-0.773878,37.157,32.1102)"><tspan
             id="tspan62"
             y="0"
             x="0">в</tspan></text>
<text
           id="text68"
           style="font-variant:normal;font-weight:normal;font-size:18.61410141px;font-family:ArialMT;-inkscape-font-specification:ArialMT;writing-mode:lr-tb;fill:#040606;fill-opacity:1;fill-rule:nonzero;stroke:none"
           transform="matrix(0.850278,-0.526334,-0.526334,-0.850278,45.532,25.3121)"><tspan
             id="tspan66"
             y="0"
             x="0">о</tspan></text>
<text
           id="text72"
           style="font-variant:normal;font-weight:normal;font-size:18.61410522px;font-family:ArialMT;-inkscape-font-specification:ArialMT;writing-mode:lr-tb;fill:#040606;fill-opacity:1;fill-rule:nonzero;stroke:none"
           transform="matrix(0.947109,-0.320913,-0.320913,-0.947109,60.6246,16.7)"><tspan
             id="tspan70"
             y="0"
             x="0">С</tspan></text>
<text
           id="text76"
           style="font-variant:normal;font-weight:normal;font-size:18.6142025px;font-family:ArialMT;-inkscape-font-specification:ArialMT;writing-mode:lr-tb;fill:#040606;fill-opacity:1;fill-rule:nonzero;stroke:none"
           transform="matrix(0.986033,-0.166551,-0.166551,-0.986033,74.6742,12.182)"><tspan
             id="tspan74"
             y="0"
             x="0">о</tspan></text>
<text
           id="text80"
           style="font-variant:normal;font-weight:normal;font-size:18.61410141px;font-family:ArialMT;-inkscape-font-specification:ArialMT;writing-mode:lr-tb;fill:#040606;fill-opacity:1;fill-rule:nonzero;stroke:none"
           transform="matrix(0.999473,-0.0324619,-0.0324619,-0.999473,85.5875,10.3719)"><tspan
             id="tspan78"
             y="0"
             x="0">л</tspan></text>
<text
           id="text84"
           style="font-variant:normal;font-weight:normal;font-size:18.61410332px;font-family:ArialMT;-inkscape-font-specification:ArialMT;writing-mode:lr-tb;fill:#040606;fill-opacity:1;fill-rule:nonzero;stroke:none"
           transform="matrix(0.994309,0.106536,0.106536,-0.994309,97.5891,10.0762)"><tspan
             id="tspan82"
             y="0"
             x="0">и</tspan></text>
<text
           id="text88"
           style="font-variant:normal;font-weight:normal;font-size:18.61410522px;font-family:ArialMT;-inkscape-font-specification:ArialMT;writing-mode:lr-tb;fill:#040606;fill-opacity:1;fill-rule:nonzero;stroke:none"
           transform="matrix(0.969227,0.24617,0.24617,-0.969227,109.101,11.3762)"><tspan
             id="tspan86"
             y="0"
             x="0">д</tspan></text>
<text
           id="text92"
           style="font-variant:normal;font-weight:normal;font-size:18.61410332px;font-family:ArialMT;-inkscape-font-specification:ArialMT;writing-mode:lr-tb;fill:#040606;fill-opacity:1;fill-rule:nonzero;stroke:none"
           transform="matrix(0.9247,0.380697,0.380697,-0.9247,120.717,14.4301)"><tspan
             id="tspan90"
             y="0"
             x="0">а</tspan></text>
<text
           id="text96"
           style="font-variant:normal;font-weight:normal;font-size:18.61410332px;font-family:ArialMT;-inkscape-font-specification:ArialMT;writing-mode:lr-tb;fill:#040606;fill-opacity:1;fill-rule:nonzero;stroke:none"
           transform="matrix(0.863489,0.504368,0.504368,-0.863489,131.307,18.875)"><tspan
             id="tspan94"
             y="0"
             x="0">р</tspan></text>
<text
           id="text100"
           style="font-variant:normal;font-weight:normal;font-size:18.61410141px;font-family:ArialMT;-inkscape-font-specification:ArialMT;writing-mode:lr-tb;fill:#040606;fill-opacity:1;fill-rule:nonzero;stroke:none"
           transform="matrix(0.786724,0.617305,0.617305,-0.786724,141.17,24.7289)"><tspan
             id="tspan98"
             y="0"
             x="0">н</tspan></text>
<text
           id="text104"
           style="font-variant:normal;font-weight:normal;font-size:18.61410522px;font-family:ArialMT;-inkscape-font-specification:ArialMT;writing-mode:lr-tb;fill:#040606;fill-opacity:1;fill-rule:nonzero;stroke:none"
           transform="matrix(0.695424,0.7186,0.7186,-0.695424,150.111,31.8398)"><tspan
             id="tspan102"
             y="0"
             x="0">о</tspan></text>
<text
           id="text108"
           style="font-variant:normal;font-weight:normal;font-size:18.6140976px;font-family:ArialMT;-inkscape-font-specification:ArialMT;writing-mode:lr-tb;fill:#040606;fill-opacity:1;fill-rule:nonzero;stroke:none"
           transform="matrix(0.596504,0.80261,0.80261,-0.596504,157.979,40.1199)"><tspan
             id="tspan106"
             y="0"
             x="0">с</tspan></text>
<text
           id="text112"
           style="font-variant:normal;font-weight:normal;font-size:18.6140976px;font-family:ArialMT;-inkscape-font-specification:ArialMT;writing-mode:lr-tb;fill:#040606;fill-opacity:1;fill-rule:nonzero;stroke:none"
           transform="matrix(0.497817,0.867282,0.867282,-0.497817,164.033,48.3988)"><tspan
             id="tspan110"
             y="0"
             x="0">т</tspan></text>
<text
           id="text116"
           style="font-variant:normal;font-weight:normal;font-size:18.6140995px;font-family:ArialMT;-inkscape-font-specification:ArialMT;writing-mode:lr-tb;fill:#040606;fill-opacity:1;fill-rule:nonzero;stroke:none"
           transform="matrix(0.38885,0.921301,0.921301,-0.38885,168.759,56.6809)"><tspan
             id="tspan114"
             y="0"
             x="0">ь</tspan></text>
<text
           id="text120"
           style="font-variant:normal;font-weight:normal;font-size:18.61419678px;font-family:ArialMT;-inkscape-font-specification:ArialMT;writing-mode:lr-tb;fill:#040606;fill-opacity:1;fill-rule:nonzero;stroke:none"
           transform="matrix(0.174308,0.984691,0.984691,-0.174308,174.724,72.3012)"><tspan
             id="tspan118"
             y="0"
             x="0">С</tspan></text>
<text
           id="text124"
           style="font-variant:normal;font-weight:normal;font-size:18.61409569px;font-family:ArialMT;-inkscape-font-specification:ArialMT;writing-mode:lr-tb;fill:#040606;fill-opacity:1;fill-rule:nonzero;stroke:none"
           transform="matrix(0.0197847,0.999804,0.999804,-0.0197847,177.059,86.834)"><tspan
             id="tspan122"
             y="0"
             x="0">п</tspan></text>
<text
           id="text128"
           style="font-variant:normal;font-weight:normal;font-size:18.61419678px;font-family:ArialMT;-inkscape-font-specification:ArialMT;writing-mode:lr-tb;fill:#040606;fill-opacity:1;fill-rule:nonzero;stroke:none"
           transform="matrix(-0.113595,0.993527,0.993527,0.113595,177.219,97.9898)"><tspan
             id="tspan126"
             y="0"
             x="0">р</tspan></text>
<text
           id="text132"
           style="font-variant:normal;font-weight:normal;font-size:18.61410522px;font-family:ArialMT;-inkscape-font-specification:ArialMT;writing-mode:lr-tb;fill:#040606;fill-opacity:1;fill-rule:nonzero;stroke:none"
           transform="matrix(-0.249174,0.968459,0.968459,0.249174,175.838,109.386)"><tspan
             id="tspan130"
             y="0"
             x="0">а</tspan></text>
<text
           id="text136"
           style="font-variant:normal;font-weight:normal;font-size:18.61409569px;font-family:ArialMT;-inkscape-font-specification:ArialMT;writing-mode:lr-tb;fill:#040606;fill-opacity:1;fill-rule:nonzero;stroke:none"
           transform="matrix(-0.377866,0.92586,0.92586,0.377866,172.891,120.474)"><tspan
             id="tspan134"
             y="0"
             x="0">в</tspan></text>
<text
           id="text140"
           style="font-variant:normal;font-weight:normal;font-size:18.61410522px;font-family:ArialMT;-inkscape-font-specification:ArialMT;writing-mode:lr-tb;fill:#040606;fill-opacity:1;fill-rule:nonzero;stroke:none"
           transform="matrix(-0.496514,0.868029,0.868029,0.496514,168.789,130.414)"><tspan
             id="tspan138"
             y="0"
             x="0">е</tspan></text>
<text
           id="text144"
           style="font-variant:normal;font-weight:normal;font-size:18.6140995px;font-family:ArialMT;-inkscape-font-specification:ArialMT;writing-mode:lr-tb;fill:#040606;fill-opacity:1;fill-rule:nonzero;stroke:none"
           transform="matrix(-0.609038,0.793141,0.793141,0.609038,163.27,140)"><tspan
             id="tspan142"
             y="0"
             x="0">д</tspan></text>
<text
           id="text148"
           style="font-variant:normal;font-weight:normal;font-size:18.61419487px;font-family:ArialMT;-inkscape-font-specification:ArialMT;writing-mode:lr-tb;fill:#040606;fill-opacity:1;fill-rule:nonzero;stroke:none"
           transform="matrix(-0.716265,0.697828,0.697828,0.716265,155.856,149.511)"><tspan
             id="tspan146"
             y="0"
             x="0">л</tspan></text>
<text
           id="text152"
           style="font-variant:normal;font-weight:normal;font-size:18.61419487px;font-family:ArialMT;-inkscape-font-specification:ArialMT;writing-mode:lr-tb;fill:#040606;fill-opacity:1;fill-rule:nonzero;stroke:none"
           transform="matrix(-0.806836,0.590775,0.590775,0.806836,147.188,157.823)"><tspan
             id="tspan150"
             y="0"
             x="0">и</tspan></text>
<text
           id="text156"
           style="font-variant:normal;font-weight:normal;font-size:18.61409187px;font-family:ArialMT;-inkscape-font-specification:ArialMT;writing-mode:lr-tb;fill:#040606;fill-opacity:1;fill-rule:nonzero;stroke:none"
           transform="matrix(-0.878886,0.477031,0.477031,0.878886,137.845,164.55)"><tspan
             id="tspan154"
             y="0"
             x="0">в</tspan></text>
<text
           id="text160"
           style="font-variant:normal;font-weight:normal;font-size:18.6140976px;font-family:ArialMT;-inkscape-font-specification:ArialMT;writing-mode:lr-tb;fill:#040606;fill-opacity:1;fill-rule:nonzero;stroke:none"
           transform="matrix(-0.934178,0.356807,0.356807,0.934178,128.357,169.651)"><tspan
             id="tspan158"
             y="0"
             x="0">о</tspan></text>
<text
           id="text164"
           style="font-variant:normal;font-weight:normal;font-size:18.61411095px;font-family:ArialMT;-inkscape-font-specification:ArialMT;writing-mode:lr-tb;fill:#040606;fill-opacity:1;fill-rule:nonzero;stroke:none"
           transform="matrix(-0.972951,0.231014,0.231014,0.972951,117.639,173.632)"><tspan
             id="tspan162"
             y="0"
             x="0">с</tspan></text>
<text
           id="text168"
           style="font-variant:normal;font-weight:normal;font-size:18.61409187px;font-family:ArialMT;-inkscape-font-specification:ArialMT;writing-mode:lr-tb;fill:#040606;fill-opacity:1;fill-rule:nonzero;stroke:none"
           transform="matrix(-0.993483,0.113977,0.113977,0.993483,107.616,175.929)"><tspan
             id="tspan166"
             y="0"
             x="0">т</tspan></text>
<text
           id="text172"
           style="font-variant:normal;font-weight:normal;font-size:18.61410332px;font-family:ArialMT;-inkscape-font-specification:ArialMT;writing-mode:lr-tb;fill:#040606;fill-opacity:1;fill-rule:nonzero;stroke:none"
           transform="matrix(-0.999869,-0.0161938,-0.0161938,0.999869,98.0801,177.037)"><tspan
             id="tspan170"
             y="0"
             x="0">ь</tspan></text>
<text
           id="text176"
           style="font-style:italic;font-variant:normal;font-weight:bold;font-size:37.29510117px;font-family:ArialNarrow;-inkscape-font-specification:ArialNarrow-BoldItalic;writing-mode:lr-tb;fill:#040606;fill-opacity:1;fill-rule:nonzero;stroke:none"
           transform="matrix(0.96362,0,0,-1,10.3656,131.177)"><tspan
             id="tspan174"
             y="0"
             x="0 22.382166 42.961441 63.540726">ФНПР</tspan></text>
</g></g></g></svg>